<?xml version="1.0" encoding="UTF-8"?>
<svg id="_Слой_2" data-name="Слой 2" xmlns="http://www.w3.org/2000/svg" viewBox="0 0 805.47 256.01">
  <defs>
    <style>
      .cls-1 {
        font-family: MicrosoftSansSerif, 'Microsoft Sans Serif';
        font-size: 142.27px;
      }

      .cls-1, .cls-2 {
        isolation: isolate;
      }

      .cls-1, .cls-3 {
        stroke: #000;
        stroke-miterlimit: 10;
      }

      .cls-3 {
        fill: none;
        stroke-width: 8px;
      }
    </style>
  </defs>
  <g id="_Слой_2-2" data-name=" Слой 2">
    <g id="_Слой_1-2" data-name=" Слой 1-2">
      <g id="_Слой_3" data-name=" Слой 3">
        <path class="cls-3" d="M175.94,117.47l-28.14,15.75"/>
        <path class="cls-3" d="M226.67,124.93l-12.46-9.44"/>
        <path class="cls-3" d="M283.25,149.23l-3.12-3.09h-16.02"/>
        <path class="cls-3" d="M91.45,128.57l-24.78-1.84L6.02,171.01l29.72,31.53,44.27,4.85,40.03,43.67,55.79-28.5,83.08,2.43,55.28-44.03-1.69-1.69-29.97-30.75"/>
        <path class="cls-3" d="M138.64,183.14c9.22.73,16.32,5.13,16.32,10.45,0,5.83-8.51,10.56-19.01,10.56s-19.01-4.73-19.01-10.56c0-4.33,5.48-8.33,12.18-9.96"/>
        <ellipse class="cls-3" cx="135.95" cy="193.59" rx="6.09" ry="1.64"/>
      </g>
      <g id="_Слой_4" data-name=" Слой 4">
        <path class="cls-3" d="M125.43,22.94c-.08,2.61-.01,43.64-.04,46.73,0,.2-.03.19-.31.28-1.8.46-11.85,3.09-15.68,4.07-.2.04-.29.1-.43.04-.18-.18-1.16-1.62-2.74-3.81-7.22-9.73-20.52-29.54-23.43-32.3-1.3-1.01-3.27-1.12-4.73-.52-3.08,1.33-30.06,13.09-32.98,14.35-2.74,1.17-3.7,4.46-2.13,6.86,2.22,3.14,88.63,127.49,90.74,130.4.14.13.61.41,1.24.38.67-.02,1.21-.54,1.38-.8,10.37-49.58,25.82-126.88,35.48-173.78.42-2.05.73-3.56.91-4.44.27-1.14.25-1.23.17-2.29-.25-3.09-3.67-4.91-6.44-3.77-3.02,1.17-34.75,13.3-37.94,14.53-1.62.59-2.95,2.49-3.07,4.01v.06h0Z"/>
        <polygon class="cls-3" points="109.29 101.58 132.1 95.57 127.08 135.91 109.29 101.58"/>
      </g>
      <g id="_Слой_7" data-name=" Слой 7">
        <path class="cls-3" d="M184.34,51.92h20.86c4.89,0,8.86,3.96,8.86,8.86v122.22c0,4.9-3.98,8.87-8.88,8.86l-20.86-.05c-4.88,0-8.84-3.98-8.84-8.86V60.78c0-4.89,3.96-8.86,8.86-8.86h0Z"/>
        <path class="cls-3" d="M265,146.07v37.05c0,4.83-3.92,8.74-8.76,8.73l-21.1-.05c-4.82,0-8.71-3.92-8.71-8.73V60.65c0-4.82,3.91-8.73,8.73-8.73h21.1c4.82,0,8.73,3.91,8.73,8.73v85.41"/>
        <path class="cls-3" d="M214.05,115.74v67.38c0,4.83-3.92,8.74-8.76,8.73l-21.1-.05c-4.82,0-8.71-3.92-8.71-8.73V60.65c0-4.82,3.91-8.73,8.73-8.73h21.1c4.82,0,8.73,3.91,8.73,8.73v55.08"/>
      </g>
    </g>
    <g id="uuid-23c391d6-7a49-4e7d-b9f3-de3fed385a25" data-name=" Слой 2-2">
      <g class="cls-2">
        <g class="cls-2">
          <g class="cls-2">
            <g class="cls-2">
              <text class="cls-1" transform="translate(322.65 188.78)"><tspan x="0" y="0">SPACE</tspan></text>
            </g>
          </g>
        </g>
      </g>
    </g>
  </g>
</svg>